<?xml version="1.0" encoding="UTF-8"?>
<svg version="1.1" xmlns="http://www.w3.org/2000/svg" width="338" height="111">
<path d="M0 0 C111.54 0 223.08 0 338 0 C338 36.63 338 73.26 338 111 C226.46 111 114.92 111 0 111 C0 74.37 0 37.74 0 0 Z " fill="#0911E6" transform="translate(0,0)"/>
<path d="M0 0 C111.54 0 223.08 0 338 0 C338 19.47 338 38.94 338 59 C335.69 58.67 333.38 58.34 331 58 C330.67 56.68 330.34 55.36 330 54 C328.68 54 327.36 54 326 54 C326 53.01 326 52.02 326 51 C327.65 51 329.3 51 331 51 C330.67 50.34 330.34 49.68 330 49 C328.06643337 48.53205677 328.06643337 48.53205677 325.74609375 48.3671875 C324.89208984 48.28339844 324.03808594 48.19960938 323.15820312 48.11328125 C322.26037109 48.03464844 321.36253906 47.95601562 320.4375 47.875 C319.08495117 47.74544922 319.08495117 47.74544922 317.70507812 47.61328125 C315.47070082 47.40048341 313.23586385 47.19645533 311 47 C311.66 45.02 312.32 43.04 313 41 C317.62 41 322.24 41 327 41 C326.67 39.68 326.34 38.36 326 37 C326.0859375 34.7109375 326.0859375 34.7109375 326.375 32.375 C326.46523438 31.59898438 326.55546875 30.82296875 326.6484375 30.0234375 C327 28 327 28 328 26 C328.34092041 20.67032792 328.34092041 20.67032792 326 16 C326.33 15.67 326.66 15.34 327 15 C327.04080783 13.00041636 327.04254356 10.99954746 327 9 C313.58188879 5.94233307 300.01017194 5.7751538 286.31445312 5.44775391 C284.19910424 5.39596302 282.08394774 5.33883983 279.96875 5.28125 C278.72544922 5.25095703 277.48214844 5.22066406 276.20117188 5.18945312 C273.60641864 5.03588933 271.48882709 4.64237434 269 4 C268.67 4.33 268.34 4.66 268 5 C265.42915827 5.14798407 262.88185571 5.23511524 260.30859375 5.28125 C259.14058983 5.30886414 259.14058983 5.30886414 257.94898987 5.33703613 C255.44523911 5.39595785 252.94141596 5.44861053 250.4375 5.5 C247.95858801 5.55163897 245.47975973 5.60479792 243.00099182 5.66296387 C241.45724444 5.69915016 239.91340535 5.73167976 238.36949158 5.7598877 C234.86525654 5.8416019 231.45107943 6.03584547 227.9777832 6.51806641 C223.8724394 7.07355139 219.87013762 7.07670719 215.734375 6.9921875 C214.12183868 6.97211344 212.50928867 6.9531168 210.89672852 6.93505859 C210.05715607 6.92464539 209.21758362 6.91423218 208.35256958 6.90350342 C193.35876237 6.7392908 178.50651386 7.11648838 163.5625 8.375 C162.77588989 8.43830505 161.98927979 8.50161011 161.17883301 8.5668335 C158.97333633 8.74804118 156.76989637 8.94440319 154.56640625 9.1484375 C153.31802979 9.26364746 152.06965332 9.37885742 150.78344727 9.49755859 C149.86490967 9.66336426 148.94637207 9.82916992 148 10 C147.67 10.66 147.34 11.32 147 12 C144.953125 12.34375 144.953125 12.34375 142.25 12.5 C138.09244861 12.77795863 134.08038027 13.30166029 129.98046875 14.03515625 C121.78577884 15.32844088 113.75707905 15.07353756 105.49023438 14.83398438 C99.26707499 14.73196537 95.52850304 15.00414903 90 18 C86.24896496 18.63965647 82.48207243 18.87705228 78.6875 19.125 C76.69133533 19.27248073 74.69524019 19.42090577 72.69921875 19.5703125 C71.26521729 19.67327637 71.26521729 19.67327637 69.80224609 19.77832031 C65.85525899 20.09055801 61.93176682 20.53552185 58 21 C58 21.66 58 22.32 58 23 C52.12615172 24.29915703 46.28817871 25.23063542 40.3125 25.9375 C32.79305037 26.90222296 32.79305037 26.90222296 26 30 C24.47943768 32.94608949 25.17434983 34.91026224 26 38 C25.30132813 38.17015625 24.60265625 38.3403125 23.8828125 38.515625 C22.97273438 38.75796875 22.06265625 39.0003125 21.125 39.25 C19.76761719 39.59804687 19.76761719 39.59804687 18.3828125 39.953125 C15.50596767 41.21705027 15.13597954 42.1545367 14 45 C13.34 45.66 12.68 46.32 12 47 C11.67889775 52.61140632 11.67889775 52.61140632 13 58 C13.99 58.66 14.98 59.32 16 60 C15.67 60.66 15.34 61.32 15 62 C17.97 62.33 20.94 62.66 24 63 C24 64.32 24 65.64 24 67 C24.99 67 25.98 67 27 67 C27 69.64 27 72.28 27 75 C26.01 75.495 26.01 75.495 25 76 C24.67 76.99 24.34 77.98 24 79 C25.98 79 27.96 79 30 79 C30 79.33 30 79.66 30 80 C26.535 80.99 26.535 80.99 23 82 C22.87625 82.639375 22.7525 83.27875 22.625 83.9375 C22.41875 84.618125 22.2125 85.29875 22 86 C21.01 86.495 21.01 86.495 20 87 C19.690625 88.134375 19.38125 89.26875 19.0625 90.4375 C18 94 18 94 15 96 C16.32 96.33 17.64 96.66 19 97 C18.67 98.32 18.34 99.64 18 101 C17.34 101 16.68 101 16 101 C16 102.65 16 104.3 16 106 C17.30203369 105.93099487 17.30203369 105.93099487 18.63037109 105.8605957 C21.84655844 105.69743702 25.06300403 105.5480218 28.28027344 105.40795898 C29.67343971 105.34447087 31.06636665 105.27548564 32.45898438 105.20092773 C34.45892298 105.09480564 36.45995606 105.00998096 38.4609375 104.92578125 C39.66540527 104.86817627 40.86987305 104.81057129 42.11083984 104.7512207 C43.0642627 104.83331787 44.01768555 104.91541504 45 105 C45.99 106.485 45.99 106.485 47 108 C49.60742109 108.20994165 51.9608787 108.23013068 54.55859375 108.109375 C55.32620529 108.08571365 56.09381683 108.06205231 56.88468933 108.03767395 C59.4030348 107.95645025 61.91998148 107.85354382 64.4375 107.75 C66.1755747 107.68876685 67.91369434 107.62879687 69.65185547 107.57006836 C73.13886606 107.44991691 76.6253911 107.32111532 80.11181641 107.18505859 C84.34884541 107.0211103 88.58569162 106.88849373 92.82421875 106.76953125 C103.49568758 106.45562055 114.06688504 105.93121738 124.67749023 104.73291016 C132.14092155 103.91041271 139.6060626 103.58759807 147.10864258 103.34179688 C148.43738403 103.29442383 148.43738403 103.29442383 149.79296875 103.24609375 C150.5821167 103.22216553 151.37126465 103.1982373 152.18432617 103.17358398 C154.01967757 103.19252329 154.01967757 103.19252329 155 102 C158.75512011 101.59599349 162.53963392 101.51974535 166.3125 101.375 C167.45775146 101.33068848 168.60300293 101.28637695 169.78295898 101.24072266 C178.72433267 100.95391132 187.62328125 101.05667237 196.5625 101.375 C197.78686768 101.41802246 199.01123535 101.46104492 200.27270508 101.50537109 C208.86494047 101.86494047 208.86494047 101.86494047 210 103 C213.8674244 103.28254373 217.74849799 103.23190664 221.625 103.25 C222.70652344 103.270625 223.78804687 103.29125 224.90234375 103.3125 C231.14965669 103.34301191 235.43907222 102.82846659 241 100 C244.4375 99.8125 244.4375 99.8125 247 100 C247 99.34 247 98.68 247 98 C251.22341741 96.0241322 255.34957874 95.4600701 259.9375 95 C264.87755539 94.50184315 269.29221609 93.60341936 274 92 C291.39382482 87.98552916 309.28398286 88.67613918 327 89 C327 88.34 327 87.68 327 87 C328.32 86.67 329.64 86.34 331 86 C331 84.35 331 82.7 331 81 C329.35 80.67 327.7 80.34 326 80 C326.59861742 77.64828869 327.26924352 75.3140622 328 73 C328.66 72.67 329.32 72.34 330 72 C330.65555119 69.47266765 330.65555119 69.47266765 331 67 C331.66 67 332.32 67 333 67 C333 66.34 333 65.68 333 65 C334.65 64.67 336.3 64.34 338 64 C338 79.51 338 95.02 338 111 C226.46 111 114.92 111 0 111 C0 74.37 0 37.74 0 0 Z " fill="#FBFBFC" transform="translate(0,0)"/>
<path d="M0 0 C0 0.33 0 0.66 0 1 C-0.70608398 1.01981934 -1.41216797 1.03963867 -2.13964844 1.06005859 C-5.34346994 1.15540415 -8.54664801 1.26504513 -11.75 1.375 C-13.41675781 1.42140625 -13.41675781 1.42140625 -15.1171875 1.46875 C-16.72207031 1.52675781 -16.72207031 1.52675781 -18.359375 1.5859375 C-19.83615723 1.63306885 -19.83615723 1.63306885 -21.34277344 1.68115234 C-23.97474517 1.84224683 -23.97474517 1.84224683 -26.00439453 3.02075195 C-30.23706627 5.0977334 -35.52502486 4.02501347 -40.125 3.8125 C-41.23488281 3.78091797 -42.34476563 3.74933594 -43.48828125 3.71679688 C-44.54660156 3.67232422 -45.60492188 3.62785156 -46.6953125 3.58203125 C-48.1496167 3.52366089 -48.1496167 3.52366089 -49.63330078 3.46411133 C-50.41431152 3.31095459 -51.19532227 3.15779785 -52 3 C-52.66 2.01 -53.32 1.02 -54 0 C-35.95304638 -1.33453013 -18.05645301 -0.72108085 0 0 Z " fill="#C7C7C6" transform="translate(209,102)"/>
<path d="M0 0 C4.95 0 9.9 0 15 0 C15 0.66 15 1.32 15 2 C14.35675781 2.04898437 13.71351563 2.09796875 13.05078125 2.1484375 C7.85653848 2.57820366 2.76282725 3.18012041 -2.375 4.0625 C-8.94710057 5.12760633 -15.35711492 5.19569874 -22 5 C-19.6031335 2.6031335 -18.92971686 2.71718867 -15.6484375 2.5859375 C-14.79765625 2.54726562 -13.946875 2.50859375 -13.0703125 2.46875 C-11.73613281 2.42234375 -11.73613281 2.42234375 -10.375 2.375 C-9.4778125 2.33632812 -8.580625 2.29765625 -7.65625 2.2578125 C-5.4377073 2.16340643 -3.21917597 2.07783252 -1 2 C-0.67 1.34 -0.34 0.68 0 0 Z " fill="#FEFED1" transform="translate(132,10)"/>
<path d="M0 0 C15.03852979 -0.12067956 29.98859814 0.0607391 45 1 C45 1.33 45 1.66 45 2 C41.06290089 2.19665429 37.12531328 2.38075477 33.1875 2.5625 C32.06794922 2.61857422 30.94839844 2.67464844 29.79492188 2.73242188 C28.18520508 2.80493164 28.18520508 2.80493164 26.54296875 2.87890625 C25.0583313 2.94960327 25.0583313 2.94960327 23.54370117 3.02172852 C21 3 21 3 18 2 C16.51876453 1.9193378 15.03417796 1.89238807 13.55078125 1.90234375 C12.70322266 1.90556641 11.85566406 1.90878906 10.98242188 1.91210938 C9.66081055 1.92467773 9.66081055 1.92467773 8.3125 1.9375 C6.97348633 1.94426758 6.97348633 1.94426758 5.60742188 1.95117188 C3.40488013 1.96295017 1.20247401 1.97939836 -1 2 C-0.67 1.34 -0.34 0.68 0 0 Z " fill="#FEFEED" transform="translate(185,103)"/>
<path d="M0 0 C1.65 0 3.3 0 5 0 C5 0.66 5 1.32 5 2 C-2.95735532 3.88849677 -10.84515697 4.55348122 -19 5 C-14.56280401 2.04186934 -11.54588583 1.8856843 -6.3125 1.9375 C-4.54326172 1.95103516 -4.54326172 1.95103516 -2.73828125 1.96484375 C-1.83464844 1.97644531 -0.93101563 1.98804687 0 2 C0 1.34 0 0.68 0 0 Z " fill="#FEFDC1" transform="translate(53,21)"/>
<path d="M0 0 C0 0.66 0 1.32 0 2 C-8.39004715 2.13605482 -16.64380043 1.75475351 -25 1 C-25 0.67 -25 0.34 -25 0 C-21.58382503 -0.1972935 -18.16705407 -0.38112295 -14.75 -0.5625 C-13.29787109 -0.64661133 -13.29787109 -0.64661133 -11.81640625 -0.73242188 C-10.88183594 -0.78076172 -9.94726562 -0.82910156 -8.984375 -0.87890625 C-8.12553711 -0.9260376 -7.26669922 -0.97316895 -6.38183594 -1.02172852 C-4.07335735 -1.00066921 -2.20243733 -0.66206871 0 0 Z " fill="#D4D6E8" transform="translate(158,104)"/>
<path d="M0 0 C0.99 0 1.98 0 3 0 C3 1.65 3 3.3 3 5 C1.35 5.33 -0.3 5.66 -2 6 C-1.34 4.02 -0.68 2.04 0 0 Z " fill="#DFDFE6" transform="translate(313,41)"/>
<path d="M0 0 C0.99 0 1.98 0 3 0 C3 1.32 3 2.64 3 4 C1 5.75 1 5.75 -1 7 C-1.04254356 5.00045254 -1.04080783 2.99958364 -1 1 C-0.67 0.67 -0.34 0.34 0 0 Z " fill="#EDF0EF" transform="translate(19,82)"/>
<path d="M0 0 C0.33 0.66 0.66 1.32 1 2 C1.99 2 2.98 2 4 2 C4 4.31 4 6.62 4 9 C3.67 8.01 3.34 7.02 3 6 C2.34 6 1.68 6 1 6 C0.67 4.02 0.34 2.04 0 0 Z " fill="#D6D7E5" transform="translate(23,65)"/>
</svg>
